<svg width="124" height="40" fill="none" xmlns="http://www.w3.org/2000/svg"><path fill-rule="evenodd" clip-rule="evenodd" d="M27.048 0H6.128A6.384 6.384 0 0 0 .034 4.583c-.134.55.202 1.109.755 1.242.016 0 .033.008.05.008h23.468c.696 0 1.04.492.579 1.009l-.713 1.183C23.637 9.058 22.966 10 21.793 10H11.735c-2.028 0-2.925 1.308-3.353 3.333-.067.4.21.767.604.834.075.008.16.008.234 0h10.896c.62.083 1.056.658.973 1.275a1.147 1.147 0 0 1-.134.391l-.587.875a2.812 2.812 0 0 1-2.766 1.625h-7.543a3.29 3.29 0 0 0-3.118 3.142L4.954 39.967l.897.033c3.898 0 6.53-3.008 7.083-7.017l.846-6.375a2.102 2.102 0 0 1 2.087-1.816h4.777c7.1-.017 12.858-5.734 12.874-12.792V6.425c0-3.55-2.9-6.425-6.47-6.425Z" fill="#0067DA"/><path fill-rule="evenodd" clip-rule="evenodd" d="M45.728 27.449a2.167 2.167 0 0 0 1.594-.572c.403-.414.62-.97.587-1.541v-3.944h3.692A6.112 6.112 0 0 0 55.863 20a5.549 5.549 0 0 0 .008-7.663 6.2 6.2 0 0 0-4.279-1.383h-6.015c-.99-.108-1.888.588-1.997 1.565a1.642 1.642 0 0 0 0 .406v12.411c-.084 1.077.73 2.022 1.82 2.113.11.008.219.008.328 0Zm5.285-9.255H47.91v-4.01h3.104c1.57 0 2.35.672 2.35 2.022a1.856 1.856 0 0 1-.58 1.508 2.733 2.733 0 0 1-1.77.48Zm15.295-2.535-.327.025a3.546 3.546 0 0 0-1.795.605 3.072 3.072 0 0 0-1.234 1.574v-.44a1.666 1.666 0 0 0-.528-1.3 2.046 2.046 0 0 0-1.401-.464 2.16 2.16 0 0 0-1.444.49c-.402.339-.629.844-.595 1.366v8.028a1.72 1.72 0 0 0 .596 1.425 2.57 2.57 0 0 0 2.986 0c.42-.356.638-.886.596-1.425v-3.968a2.4 2.4 0 0 1 .503-1.616 2.507 2.507 0 0 1 1.678-.729l.705-.066a2.699 2.699 0 0 0 1.56-.53c.328-.373.479-.854.437-1.343a1.626 1.626 0 0 0-.47-1.267 1.611 1.611 0 0 0-1.267-.365Zm4.933 11.79a2.1 2.1 0 0 0 1.536-.572 2.1 2.1 0 0 0 .579-1.541v-4.69h5.168c.545.042 1.082-.099 1.535-.397.36-.315.546-.779.504-1.25a1.556 1.556 0 0 0-.504-1.277 2.395 2.395 0 0 0-1.535-.414h-5.168v-3.016h5.638a2.45 2.45 0 0 0 1.535-.397c.36-.315.545-.78.503-1.251a1.577 1.577 0 0 0-.495-1.285 2.437 2.437 0 0 0-1.552-.405H71.09c-.99-.108-1.887.588-1.996 1.565a1.642 1.642 0 0 0 0 .406v12.411a2.002 2.002 0 0 0 1.887 2.113h.26Zm14.188 0a2.359 2.359 0 0 0 1.493-.473c.42-.356.638-.886.596-1.425V12.76a1.752 1.752 0 0 0-.596-1.442 2.543 2.543 0 0 0-2.987 0c-.42.364-.637.895-.595 1.442v12.783a1.72 1.72 0 0 0 .595 1.425c.428.331.948.497 1.494.48Zm9.883-11.831c-.822 0-1.636.091-2.441.257a8.232 8.232 0 0 0-2.064.67 1.824 1.824 0 0 0-.68.58 1.451 1.451 0 0 0-.21.837c-.017.39.11.78.353 1.094.234.273.579.43.94.414.31-.008.62-.074.914-.182a9.425 9.425 0 0 1 2.819-.646c.453-.042.906.083 1.267.356.277.323.42.746.377 1.168v.282h-.638a17.846 17.846 0 0 0-3.808.323 3.799 3.799 0 0 0-2.056 1.052 2.88 2.88 0 0 0-.646 1.964c-.008.68.185 1.342.554 1.914.369.571.898 1.027 1.518 1.325.672.323 1.41.489 2.165.472a3.526 3.526 0 0 0 1.854-.464 2.6 2.6 0 0 0 1.108-1.3c.008.48.218.927.578 1.25a2 2 0 0 0 1.351.465 2.057 2.057 0 0 0 1.468-.498c.37-.364.563-.87.529-1.383V20.72a5.176 5.176 0 0 0-1.284-3.836 5.47 5.47 0 0 0-3.968-1.267Zm-.654 9.113a1.197 1.197 0 0 1-.881-.348 1.237 1.237 0 0 1-.344-.878.918.918 0 0 1 .637-.895 6.028 6.028 0 0 1 2.14-.265h.377v.282a2.138 2.138 0 0 1-.537 1.516c-.36.381-.864.605-1.392.588Zm15.579-9.072-.327.025a3.543 3.543 0 0 0-1.795.605 3.069 3.069 0 0 0-1.233 1.574v-.44a1.666 1.666 0 0 0-.529-1.3 2.045 2.045 0 0 0-1.401-.464 2.16 2.16 0 0 0-1.443.49c-.403.339-.629.844-.596 1.366v8.028a1.72 1.72 0 0 0 .596 1.425 2.57 2.57 0 0 0 2.987 0c.419-.356.637-.886.595-1.425v-3.968a2.402 2.402 0 0 1 .504-1.616 2.504 2.504 0 0 1 1.678-.729l.704-.066a2.699 2.699 0 0 0 1.561-.53c.327-.373.478-.854.436-1.343a1.624 1.624 0 0 0-.47-1.267 1.601 1.601 0 0 0-1.267-.365Zm11.671 7.987c-.21 0-.42.041-.621.108-.227.066-.461.149-.696.24-.361.14-.73.257-1.108.356a3.946 3.946 0 0 1-1.082.124 2.51 2.51 0 0 1-1.67-.489 2.53 2.53 0 0 1-.73-1.598h6.2a.89.89 0 0 0 .714-.29c.176-.24.268-.53.243-.82a6.385 6.385 0 0 0-.671-2.991 4.784 4.784 0 0 0-1.888-1.972 5.564 5.564 0 0 0-2.844-.696 6 6 0 0 0-2.995.754 5.242 5.242 0 0 0-2.064 2.112 6.331 6.331 0 0 0-.739 3.074 6.296 6.296 0 0 0 .772 3.157 5.126 5.126 0 0 0 2.207 2.063 7.465 7.465 0 0 0 3.356.72 8.588 8.588 0 0 0 2.005-.265 8.955 8.955 0 0 0 1.888-.663c.562-.248.923-.803.914-1.416a1.67 1.67 0 0 0-.344-1.094c-.176-.273-.503-.422-.847-.414Zm-4.019-5.244c1.099 0 1.695.679 1.787 2.038h-3.691a2.453 2.453 0 0 1 .587-1.517 1.708 1.708 0 0 1 1.317-.521Z" fill="#4A5365"/></svg>